<?xml version="1.0" encoding="UTF-8" standalone="no"?>
<!-- Created with Inkscape (http://www.inkscape.org/) -->

<svg
   xmlns:dc="http://purl.org/dc/elements/1.1/"
   xmlns:cc="http://creativecommons.org/ns#"
   xmlns:rdf="http://www.w3.org/1999/02/22-rdf-syntax-ns#"
   xmlns:svg="http://www.w3.org/2000/svg"
   xmlns="http://www.w3.org/2000/svg"
   xmlns:sodipodi="http://sodipodi.sourceforge.net/DTD/sodipodi-0.dtd"
   xmlns:inkscape="http://www.inkscape.org/namespaces/inkscape"
   version="1.1"
   id="svg3788"
   width="682.66669"
   height="682.66669"
   viewBox="0 0 10 1"
   sodipodi:docname="grapes.svg"
   inkscape:version="0.92.3 (2405546, 2018-03-11)">
  <metadata
     id="metadata3794">
    <rdf:RDF>
      <cc:Work
         rdf:about="">
        <dc:format>image/svg+xml</dc:format>
        <dc:type
           rdf:resource="http://purl.org/dc/dcmitype/StillImage" />
        <dc:title />
      </cc:Work>
    </rdf:RDF>
  </metadata>
  <defs
     id="defs3792" />
  <sodipodi:namedview
     pagecolor="#ffffff"
     bordercolor="#666666"
     borderopacity="1"
     objecttolerance="10"
     gridtolerance="10"
     guidetolerance="10"
     inkscape:pageopacity="0"
     inkscape:pageshadow="2"
     inkscape:window-width="1366"
     inkscape:window-height="706"
     id="namedview3790"
     showgrid="false"
     inkscape:zoom="0.78662107"
     inkscape:cx="158.41155"
     inkscape:cy="324.51724"
     inkscape:window-x="-8"
     inkscape:window-y="-8"
     inkscape:window-maximized="1"
     inkscape:current-layer="g3808" />
  <g
     id="g3808"
     transform="matrix(0.74723447,0,0,0.75293555,86.039196,74.063756)">
        <path _ngcontent-c1="" d="M0 0
        A 0.5 0.5 0 0 0 1 0
        A 0.5 0.5 0 0 0 2 0
        A 0.5 0.5 0 0 0 3 0
        A 0.5 0.5 0 0 0 4 0
        A 0.5 0.5 0 0 0 5 0
        A 0.5 0.5 0 0 0 6 0
        A 0.5 0.5 0 0 0 7 0
        A 0.5 0.5 0 0 0 8 0
        A 0.5 0.5 0 0 0 9 0
        A 0.5 0.5 0 0 0 10 0
        Z" fill="#4B3C95" stroke="#4B3C95" stroke-width="0.2"></path>
  </g>
</svg>
